<svg width="140" height="140" xmlns="http://www.w3.org/2000/svg"><g stroke="#020303" fill="none" fill-rule="evenodd" stroke-linecap="round" stroke-linejoin="round"><path d="M70.098 24.23h17.873c.52 0 .943.422.943.943v5.938c0 .066.007.132.02.197l2.013 9.422a.95.95 0 01.02.208l-.91 71.793a.943.943 0 01-.944.932H51.084a.944.944 0 01-.944-.932l-.91-71.793c-.001-.07.005-.14.02-.208l2.012-9.422a.933.933 0 00.021-.197v-5.938c0-.521.422-.944.944-.944h17.871z"/><path d="M76.964 36.069c0 1.693-3.074 3.066-6.865 3.066-3.792 0-6.866-1.373-6.866-3.066M63.233 31.382v4.687M76.964 31.382v4.687M76.964 31.269c0 1.63-3.074 2.952-6.865 2.952-3.792 0-6.866-1.322-6.866-2.952 0-1.632 3.074-2.954 6.866-2.954 3.791 0 6.865 1.322 6.865 2.954zM49.23 40.938h41.717M51.283 31.111h10.52M78.418 31.242h10.519M79.715 73.017c0 6.912-5.94 16.622-9.627 16.622-3.687 0-9.627-9.71-9.627-16.622 0-6.913 3.389-12.948 9.627-12.948 6.239 0 9.627 6.035 9.627 12.948zM70.088 66.258V83.45"/><path d="M66.817 67.531s-.85 3.087-.85 7.222c0 4.134.85 7.424.85 7.424M73.38 82.177s.85-3.086.85-7.221-.85-7.425-.85-7.425"/></g></svg>