<svg width="140" height="140" xmlns="http://www.w3.org/2000/svg"><g fill="none" fill-rule="evenodd"><path d="M80.458 67.793H58.525l-11.423 22.43c-.703 1.383-1.234 2.869-1.349 4.415-.592 7.932 5.684 15.048 14.008 15.048h19.46c7.925 0 13.993-6.451 14.047-13.914.013-1.974-.555-3.91-1.452-5.67l-11.358-22.31zM49.642 34.346l9.002 16.907h21.694l9.001-16.907c.999-1.575-.133-3.63-1.998-3.63h-35.7c-1.865 0-2.997 2.055-1.999 3.63z" stroke="#000"/><path d="M81.928 65.148c-3.805-3.615.892-11.227.892-11.227s2.672-4.474-4.2-4.474h-18.5c-6.872 0-4.2 4.474-4.2 4.474s4.698 7.612.89 11.227c-3.804 3.617.51 5.855.51 5.855h24.098s4.316-2.238.51-5.855" fill="#FFF"/><path d="M81.928 65.148c-3.805-3.615.892-11.227.892-11.227s2.672-4.474-4.2-4.474h-18.5c-6.872 0-4.2 4.474-4.2 4.474s4.698 7.612.89 11.227c-3.804 3.617.51 5.855.51 5.855h24.098s4.316-2.238.51-5.855z" stroke="#000"/><path d="M77.768 60.224a2.525 2.525 0 11-5.05.002 2.525 2.525 0 015.05-.002zM58.23 60.224s5.991 2.867 14.488 0" stroke="#000"/><path d="M73.343 62.18c-1.29 1.577-5.956 7.975-5.956 18.03M78.072 61.405s8.936 2.27 15.248 12.084" stroke="#000" stroke-linecap="round"/></g></svg>