<svg width="140" height="140" xmlns="http://www.w3.org/2000/svg"><g fill="none" fill-rule="evenodd"><path d="M77.357 56.959a3.108 3.108 0 01-6.215 0" stroke="#020303"/><path d="M59.168 51.782l.035.277.383 2.82a2.38 2.38 0 002.36 2.08h23.086a2.38 2.38 0 002.223-1.531l1.191-3.008" stroke="#020303" stroke-linecap="round"/><path d="M55.94 49.788h4.205c1.046 0 1.62-1.216.955-2.023-.739-.896-2.196-.371-2.191.792l.452 4.52" stroke="#020303"/><path d="M95.652 69.674H79.35a1.19 1.19 0 00-1.19 1.19v13.419c0 .658.533 1.19 1.19 1.19h16.303a1.19 1.19 0 001.19-1.19v-13.42a1.19 1.19 0 00-1.19-1.189zm-2.883 20.21H77.985a4.164 4.164 0 01-4.164-4.164V69.494c0-2.3 1.864-4.164 4.164-4.164h19.027c2.3 0 4.164 1.864 4.164 4.164V85.72c0 2.3-1.864 4.164-4.164 4.164H92.77z" stroke="#020303" stroke-linecap="round"/><path d="M92.638 89.884v3.524A5.592 5.592 0 0187.045 99H61.543a5.592 5.592 0 01-5.593-5.592V83.236c0-10.526 8.86-18.982 19.528-18.32 9.207.57 16.672 8.11 17.16 17.322v5.306" fill="#FEFEFE"/><path d="M92.638 89.884v3.524A5.592 5.592 0 0187.045 99H61.543a5.592 5.592 0 01-5.593-5.592V83.236c0-10.526 8.86-18.982 19.528-18.32 9.207.57 16.672 8.11 17.16 17.322v5.306" stroke="#020303" stroke-linecap="round"/><path d="M87.577 70.627H61.01v-4.984c0-.652.529-1.18 1.18-1.18h24.207c.652 0 1.18.528 1.18 1.18v4.984z" fill="#FEFEFE"/><path d="M87.577 70.627H61.01v-4.984c0-.652.529-1.18 1.18-1.18h24.207c.652 0 1.18.528 1.18 1.18v4.984z" stroke="#020303"/><path d="M58.525 44.426l-2.471-16.822a1.079 1.079 0 011.067-1.235h26.56c.085 0 .167.016.25.026h6.334a2.379 2.379 0 012.36 2.678l-2.647 21.862a1.729 1.729 0 01-1.713 1.495h-25.31" stroke="#020303" stroke-linecap="round"/><path d="M52.485 26.369H39.56a1.19 1.19 0 00-1.19 1.19v81.989c0 .96.778 1.738 1.739 1.738h1.227c.534 0 1.003.354 1.15.867l.364 1.263h5.849v-2.13" stroke="#020303" stroke-linecap="round" stroke-linejoin="round"/><path d="M89.864 111.286H95.4c.96 0 1.738-.778 1.738-1.738v-9.358a1.19 1.19 0 00-1.19-1.19l-42.177.003-4.35.002c-1.046 0-1.62 1.217-.955 2.023.739.897 2.196.372 2.19-.791l.011-4.515-.004-44.745c0-.657.533-1.19 1.19-1.19h5.241M45.45 111.286H85.74a1 1 0 011 1v1.13h5.849l.307-1.067c.113-.394.235-.677.176-1.05" stroke="#020303" stroke-linecap="round" stroke-linejoin="round"/></g></svg>