<svg width="140" height="140" xmlns="http://www.w3.org/2000/svg"><g fill="none" fill-rule="evenodd"><path d="M51.467 69.12l10.072-.415a1.443 1.443 0 011.491 1.263l1.141 9.296c.103.837-.529 1.58-1.37 1.617l-11.627.479a1.443 1.443 0 01-1.5-1.505l.413-9.36a1.44 1.44 0 011.38-1.375zM69.813 92.63l-2.958 9.85a1.333 1.333 0 01-1.553.918l-9.377-2.007a1.33 1.33 0 01-.996-1.683l3.418-11.374a1.33 1.33 0 011.764-.854l8.919 3.531c.642.254.983.957.783 1.618z" stroke="#020303" stroke-linecap="round" stroke-linejoin="round"/><path d="M105.386 38.467l-.047-3.872-26.421.292a2.853 2.853 0 00-2.492 1.52l-27.25 51.56 3.403 1.811 26.038-49.545a2.85 2.85 0 012.498-1.525l24.271-.24z" fill="#FEFEFE"/><path d="M105.386 38.467l-.047-3.872-26.421.292a2.853 2.853 0 00-2.492 1.52l-27.25 51.56 3.403 1.811 26.038-49.545a2.85 2.85 0 012.498-1.525l24.271-.24z" stroke="#020303" stroke-linecap="round" stroke-linejoin="round"/><path d="M45.073 64.933c1.725-1.384 6.878-4.858 13.23-3.31 7.94 1.937 17.515 4.034 22.84 1.937M75.696 93.614l-9.786 1.38a1.55 1.55 0 01-1.728-1.196l-2.005-8.925a1.55 1.55 0 011.295-1.874l11.289-1.591c.9-.127 1.713.543 1.762 1.45l.504 9.138a1.55 1.55 0 01-1.331 1.618z" stroke="#020303" stroke-linecap="round" stroke-linejoin="round"/><path d="M72.73 105.8H53.285a5.196 5.196 0 01-5.191-4.956L43.599 47.4a1.507 1.507 0 011.501-1.633h35.483c1.128 0 2.014.965 1.916 2.09l-4.577 53a5.196 5.196 0 01-5.191 4.943z" stroke="#020303" stroke-linecap="round" stroke-linejoin="round"/></g></svg>