<svg width="141" height="140" xmlns="http://www.w3.org/2000/svg"><g stroke="#000" fill="none" fill-rule="evenodd"><path d="M47.2 51.688a3.519 3.519 0 00-3.515 3.696l1.995 39.917a3.52 3.52 0 003.517 3.347h34.195A3.522 3.522 0 0086.91 95.3v-1.81c0-3.736 6.611-8.59 6.611-8.59s10.26-6.603 14.76-20.3c4.5-13.697-7.63-12.913-7.63-12.913H47.2z"/><path d="M87.853 78.47c0-3.205.616-13.762.616-13.762s.342-8.17 7.372-8.17 4.838 7.12 4.2 9.952c-.64 2.828-2.587 6.542-6.359 9.333-3.773 2.792-9.456 4.737-10.348 5.615-.893.877-2.009 3.035 0 3.674 2.008.64 4.52-3.438 4.52-6.642z"/></g></svg>