<svg width="140" height="140" xmlns="http://www.w3.org/2000/svg"><g stroke="#020303" fill="none" fill-rule="evenodd" stroke-linecap="round" stroke-linejoin="round"><path d="M83.602 95.177h7.149c2.588 0 4.687-2.099 4.687-4.687V58.955c0-2.59-2.099-4.688-4.687-4.688h-5.588m5.912 11.245v23.872c0 .79-.64 1.43-1.43 1.43h-6.043M83.531 94.374v5.836"/><path d="M51.085 53.686h34.078l-.07 5.449H51.116M85.163 58.57h4.481c.79 0 1.43.64 1.43 1.43v28.385M57.688 59.147v40.017a3.556 3.556 0 003.556 3.556h11.587a3.556 3.556 0 003.556-3.556V59.147"/><path d="M83.515 59.135v45.304c0 1.347-.574 2.55-1.477 3.413l1.375 4.123a.792.792 0 01-.751 1.042h-3.396c-.581 0-1.126-.284-1.458-.76l-2.679-3.89a1.22 1.22 0 01-.19-.655 1.204 1.204 0 012.408 0c0 .664-.538 1.207-1.203 1.207l-17.607-.003a1.204 1.204 0 111.012-.554l-2.737 3.872a1.777 1.777 0 01-1.457.761h-3.396a.792.792 0 01-.752-1.042l1.378-4.13c-.892-.863-1.467-2.06-1.467-3.406V58.96v-3.133c0-.577-.005-1.153-.024-1.73-.043-1.327 0-2.298 0-3.986 0-.557-.044-1.56-.044-1.925 0-2.335-2.37-2.848-4.138-1.78-1.72 1.04-1.546 3.559-1.546 5.25 4.183-5.25 6.71-5.25 11.857-5.25h26.292"/><path d="M51.09 43.74c-.238-3.643 1.866-5.883 5.316-7.105 3.074-1.087 6.435-1.242 9.665-1.304.343-.006.683-.22.99-.5a7.002 7.002 0 011.798-1.198 3.81 3.81 0 002.223-3.463 3.814 3.814 0 00-4.628-3.723c-1.49.31-2.675 1.548-2.931 3.05a3.81 3.81 0 001.973 4.04 7.146 7.146 0 011.72 1.276c.287.288.611.509.933.513 12.096.163 15.366 3.726 15.366 8.401v9.959"/></g></svg>