<svg width="88" height="88" xmlns="http://www.w3.org/2000/svg"><g stroke="#000" stroke-width=".75" fill="none" fill-rule="evenodd" stroke-linejoin="round"><path d="M54 35.077L50.339 37 49 35.077 51.5 33zM35 30.077L31.339 32 30 30.077 32.5 28zM46.417 42L44 38.66 45.62 37 48 39.153zM46 47.436L48.055 44l1.945.997L48.944 48zM56 49.185L53.554 52 52 50.623 53.478 48zM42.113 56.725l-3.567 1.294-.972-1.937 2.535-1.584zM49.164 58.536l-3.125-2.169.987-1.927 2.753 1.15zM32.306 41.756l-3.776-.348-.072-2.17 2.958-.357zM41 51.56L44.241 49 46 50.534 43.953 53zM35 35.734L38.36 35l.64 1.876L36.535 38zM46 30.744L43.672 34 41 32.077 43.5 30zM31 48.326L34.735 48 35 51l-3.002-.496zM38.56 41L41 44.14 38.222 46 37 43.067zM59 41.185L56.554 44 55 42.623 56.478 40z"/></g></svg>