<svg width="141" height="140" xmlns="http://www.w3.org/2000/svg"><g fill="none" fill-rule="evenodd"><path d="M66.065 36.718h-2.11a2 2 0 00-2 2v2L52.727 54.16a11.999 11.999 0 00-.976 4.74v45.528a8 8 0 008 8h22a8 8 0 008-8V58.9c0-1.63-.332-3.242-.978-4.74l-9.228-13.442v-2a2 2 0 00-2-2h-7.148" fill="#FFF"/><path d="M66.065 36.718h-2.11a2 2 0 00-2 2v2L52.727 54.16a11.999 11.999 0 00-.976 4.74v45.528a8 8 0 008 8h22a8 8 0 008-8V58.9c0-1.63-.332-3.242-.978-4.74l-9.228-13.442v-2a2 2 0 00-2-2h-7.148M65.731 32.75h-1.98c-1.106 0-2-.895-2-2v-2a2 2 0 012-2h14a2 2 0 012 2v2a2 2 0 01-2 2h-12.02z" stroke="#000" stroke-linecap="round"/><path d="M89.75 58.9h-25.5a2 2 0 00-2 2v37.966c0 1.106.895 2 2 2h25.5" stroke="#000" stroke-linecap="round"/></g></svg>