<svg width="88" height="88" xmlns="http://www.w3.org/2000/svg"><g fill="none" fill-rule="evenodd" stroke="#000" stroke-width=".75"><path d="M25.397 37.226s-.236-4.484 2.169-7.889c1.778-2.517 5.396-4.159 7.503-3.943 2.107.215 7.997.644 6.592 8.551-1.405 7.906-6.808 14.566-11.833 12.93-5.025-1.635-4.431-9.649-4.431-9.649z"/><path d="M25.397 37.226s-.236-4.484 2.169-7.889c1.778-2.517 5.396-4.159 7.503-3.943 2.107.215 7.997.644 6.592 8.551-1.405 7.906-6.808 14.566-11.833 12.93-5.025-1.635-4.431-9.649-4.431-9.649z"/><path d="M29.518 41.946s1.407-4.718 2.21-5.493c.806-.776 2.48-3.554 2.683-4.782l.536-3.296M36.982 29.053l-.476 2.872a2.26 2.26 0 01-.197.616c-.459.94-1.89 3.83-2.44 4.496-.66.797-2.316 5.587-2.316 5.587" stroke-linecap="round" stroke-linejoin="round"/><path stroke-linejoin="round" d="M57 38.077L53.339 40 52 38.077 54.5 36zM49.417 45L47 41.66 48.62 40 51 42.153zM49 50.436L51.055 47l1.945.997L51.944 51zM59 52.185L56.554 55 55 53.623 56.478 51zM60 43.185L57.554 46 56 44.623 57.478 42zM51.164 58.536l-3.125-2.169.987-1.927 2.753 1.15zM64.164 50.536l-3.125-2.169.987-1.927 2.753 1.15z"/></g></svg>