<svg width="140" height="140" xmlns="http://www.w3.org/2000/svg" xmlns:xlink="http://www.w3.org/1999/xlink"><defs><path id="a" d="M0 78.907h59.142V0H0z"/></defs><g transform="translate(42 30)" fill="none" fill-rule="evenodd"><path d="M54.232 42.345c-2.243.498-3.423.115-4.91-1.42l3.91-18.457-2.327-2.713-5.869-.106 1.031-5.61 5.504.126a2.911 2.911 0 012.165 1.015l4.161 4.851c.613.716.842 1.688.611 2.604l-4.276 19.71z" stroke="#020303" stroke-linejoin="round"/><mask id="b" fill="#fff"><use xlink:href="#a"/></mask><path stroke="#020303" stroke-linejoin="round" mask="url(#b)" d="M15.052 50.328h24.165v-8.64H15.052zM41.064 50.328H13.03L8.845 75.22l10.8 3.142h14.8l10.801-3.142z"/><path stroke="#020303" stroke-linejoin="round" mask="url(#b)" d="M34.341 14.039H8.861l4.062 27.65H40.96l5.106-27.65zM30.857 1.174l-1.008 6.554h-5.86L22.98 1.174c2.719-.808 5.353-.869 7.877 0z"/><path stroke="#020303" stroke-linecap="round" stroke-linejoin="round" mask="url(#b)" d="M2.729 14.087l21.26-6.36h5.86L46.09 14.03"/><path fill="#FEFEFE" mask="url(#b)" d="M11.462 14.039l.177 18.907L3.487 17.95.545 16.132l2.184-2.045z"/><path stroke="#020303" stroke-linecap="round" stroke-linejoin="round" mask="url(#b)" d="M11.462 14.039l.177 18.907L3.487 17.95.545 16.132l2.184-2.045zM34.894 16.962L33.158 38.62M19.257 16.962l1.737 21.658M19.99 75.18l1.737-21.67M33.952 75.18l-1.737-21.67"/></g></svg>