<svg width="140" height="140" xmlns="http://www.w3.org/2000/svg"><g stroke="#020303" fill="none" fill-rule="evenodd" stroke-linecap="round" stroke-linejoin="round"><path d="M46.618 36.312l-2.011-3.586s6.611-5.827 17.386-3.902c10.775 1.926 21.973-.547 25.19.274 3.217.821 4.518 1.438 4.518 1.438l-3.464 5.776M50.437 72.576a2.56 2.56 0 00-2.55 2.753l2.595 34.184a2.557 2.557 0 002.55 2.364h27.823a2.556 2.556 0 002.548-2.363c.112-1.466.598-2.89 1.467-4.076.683-.933 1.685-2.026 3.149-3.167 8.675-6.764 12.99-14.622 12.99-23.69 0-4.022-2.546-6.002-7.96-6.002 0 0-42.536.001-42.612-.003z"/><path d="M96.166 80.746c0 7.904-6.01 15.87-11.68 16.402-.53.05-1.113.28-1.594.506-.482.226-.911.627-1.041 1.142-.13.516.12 1.139.622 1.317.556.196 1.18-.214 1.43-.748s.4-.574.583-2.855c.161-1.989 1.068-13.649 1.068-13.649.373-3.976 3.72-6.082 6.522-6.082 2.462 0 4.09 1.276 4.09 3.967M83.676 72.575c.585 0 2.025-.496 1.49-1.337-.371-.582-1.415-.68-2.023-.837-1.103-.284-2.227-.489-3.348-.69-.937-.167-2.043-.212-2.93-.577-.651-.268-1.33-.527-1.627-.995"/><path d="M62.737 68.165h10.868c2.479 0 2.21.015 3.786-2.856.448-.815.901-1.628 1.356-2.44.52-.928 1.042-1.855 1.564-2.781.566-1.007 1.133-2.015 1.698-3.024.59-1.052 1.178-2.108 1.761-3.165a346.15 346.15 0 001.753-3.208 234.475 234.475 0 001.672-3.152c.517-.994 1.024-1.992 1.518-2.996.916-1.866 1.685-3.884 3.087-5.456.921-1.032 2.126-1.784 3.49-2.063a7.108 7.108 0 015.421 1.088c.512.35 1.207.265 1.658-.16l1.262-1.186a1.355 1.355 0 00-.118-2.076 11.449 11.449 0 00-6.796-2.222c-3.342 0-6.489 1.443-8.594 3.844H44.79a1.35 1.35 0 00-1.28 1.789c2.45 7.103 14.754 28.535 14.754 30.064 0 .61-.889.886-1.344 1.034-.96.312-1.97.472-2.963.646-.954.168-1.919.318-2.855.576-.416.115-.863.248-1.228.487-.287.189-.458.518-.321.856.232.571 1.06.776 1.612.776l2.354.038-1.317-.038"/></g></svg>