<svg width="140" height="140" xmlns="http://www.w3.org/2000/svg"><g fill="none" fill-rule="evenodd"><g stroke="#020303" stroke-linecap="round" stroke-linejoin="round"><path d="M94.3 46.964c0 13.234-10.656 23.964-23.8 23.964s-23.8-10.73-23.8-23.964C46.7 33.73 57.356 23 70.5 23s23.8 10.73 23.8 23.964z"/><path d="M90.9 46.964c0 11.344-9.133 20.54-20.4 20.54s-20.4-9.196-20.4-20.54 9.133-20.54 20.4-20.54 20.4 9.196 20.4 20.54z"/><path d="M82.4 46.964c0 6.617-5.328 11.982-11.9 11.982S58.6 53.58 58.6 46.964c0-6.617 5.328-11.982 11.9-11.982s11.9 5.365 11.9 11.982z"/></g><path d="M72 70H47.143c-.631 0-1.143.507-1.143 1.132 0 1.656 1.355 2.998 3.027 2.998h.037c.53 0 .976.396 1.034.918l4.64 41.594a1.535 1.535 0 001.53 1.358H72" stroke="#020303" stroke-linecap="round" stroke-linejoin="round"/><path d="M72 70H47.143c-.631 0-1.143.507-1.143 1.132 0 1.656 1.355 2.998 3.027 2.998h.037c.53 0 .976.396 1.034.918l4.64 41.594a1.535 1.535 0 001.53 1.358H72" stroke="#020303" fill="#FFF" stroke-linecap="round" stroke-linejoin="round"/><path d="M71 118h15.127c.755 0 1.39-.585 1.472-1.358l4.461-41.594c.056-.522.484-.918.994-.918h.035c1.608 0 2.911-1.342 2.911-2.998 0-.625-.492-1.132-1.099-1.132H71" stroke="#020303" stroke-linecap="round" stroke-linejoin="round"/><path d="M71 118h15.127c.755 0 1.39-.585 1.472-1.358l4.461-41.594c.056-.522.484-.918.994-.918h.035c1.608 0 2.911-1.342 2.911-2.998 0-.625-.492-1.132-1.099-1.132H71" stroke="#020303" fill="#FFF" stroke-linecap="round" stroke-linejoin="round"/><path d="M50.683 78H67.36A2.642 2.642 0 0170 80.646v22.008c0 .743-.601 1.346-1.342 1.346H53.554M91.688 78H75.64A2.643 2.643 0 0073 80.646v22.008c0 .743.6 1.346 1.343 1.346h14.323" stroke="#020303" stroke-linecap="round" stroke-linejoin="round"/></g></svg>