<svg width="141" height="140" xmlns="http://www.w3.org/2000/svg"><g fill="none" fill-rule="evenodd"><path d="M59.44 43.573h-4.212a1.804 1.804 0 01-1.806-1.806v-4.212c0-.997.807-1.806 1.806-1.806h4.212c.997 0 1.806.81 1.806 1.806v4.212c0 .999-.81 1.806-1.806 1.806" fill="#FFF"/><path d="M59.44 43.573h-4.212a1.804 1.804 0 01-1.806-1.806v-4.212c0-.997.807-1.806 1.806-1.806h4.212c.997 0 1.806.81 1.806 1.806v4.212c0 .999-.81 1.806-1.806 1.806z" stroke="#000"/><path d="M47.852 35.164l-3.976 1.392a1.81 1.81 0 01-2.302-1.11l-1.388-3.976a1.805 1.805 0 011.108-2.3l3.976-1.39a1.81 1.81 0 012.302 1.106l1.389 3.98c.33.94-.168 1.97-1.109 2.298" fill="#FFF"/><path d="M47.852 35.164l-3.976 1.392a1.81 1.81 0 01-2.302-1.11l-1.388-3.976a1.805 1.805 0 011.108-2.3l3.976-1.39a1.81 1.81 0 012.302 1.106l1.389 3.98c.33.94-.168 1.97-1.109 2.298z" stroke="#000"/><path d="M49.012 49.342l-2.156 3.62a1.807 1.807 0 01-2.475.627l-3.62-2.158a1.805 1.805 0 01-.627-2.475l2.156-3.619a1.807 1.807 0 012.476-.626l3.618 2.156a1.806 1.806 0 01.628 2.475" fill="#FFF"/><path d="M49.012 49.342l-2.156 3.62a1.807 1.807 0 01-2.475.627l-3.62-2.158a1.805 1.805 0 01-.627-2.475l2.156-3.619a1.807 1.807 0 012.476-.626l3.618 2.156a1.806 1.806 0 01.628 2.475z" stroke="#000"/><g><path d="M60.96 103.47c-3.65 0-6.97-2.662-7.248-6.301a7.86 7.86 0 01-.009-.956l3.449-30.689h35.49l3.449 30.689c.018.321.015.64-.011.956-.273 3.639-3.596 6.301-7.244 6.301H60.96z" fill="#FFF"/><path d="M60.96 103.47c-3.65 0-6.97-2.662-7.248-6.301a7.86 7.86 0 01-.009-.956l3.449-30.689h35.49l3.449 30.689c.018.321.015.64-.011.956-.273 3.639-3.596 6.301-7.244 6.301H60.96z" stroke="#000"/><path d="M55.79 66.321c0 2.604 13.646 2.5 19.107 2.5 5.463 0 19.106.104 19.106-2.5V63.66c0-2.605-19.106-2.132-19.106-2.132s-19.107-.473-19.107 2.132v2.662z" fill="#FFF"/><path d="M55.79 66.321c0 2.604 13.646 2.5 19.107 2.5 5.463 0 19.106.104 19.106-2.5V63.66c0-2.605-19.106-2.132-19.106-2.132s-19.107-.473-19.107 2.132v2.662z" stroke="#000"/><path d="M77.578 62.478c0 .561-1.2 1.015-2.681 1.015-1.48 0-2.679-.454-2.679-1.015l-1.028-4.381c0-.776 1.658-1.405 3.707-1.405 2.047 0 3.709.63 3.709 1.405l-1.028 4.38z" fill="#FFF"/><path d="M77.578 62.478c0 .561-1.2 1.015-2.681 1.015-1.48 0-2.679-.454-2.679-1.015l-1.028-4.381c0-.776 1.658-1.405 3.707-1.405 2.047 0 3.709.63 3.709 1.405l-1.028 4.38z" stroke="#000"/></g></g></svg>