<svg width="141" height="140" xmlns="http://www.w3.org/2000/svg"><g fill="none" fill-rule="evenodd"><path d="M92.06 34.072c.282 2.8.902 8.178 1.726 10.65 1.14 3.423 5.542 10.598 5.542 23.642v36.195a7.826 7.826 0 01-7.826 7.826H72.591a7.826 7.826 0 01-7.827-7.826V68.364c0-13.044 4.403-20.219 5.543-23.643.824-2.471 1.444-7.752 1.726-10.493M87.853 31.849h3.543c.542 0 .978-.44.978-.979v-4.322c0-.448-4.515-.814-10.328-.814s-10.329.366-10.329.814v4.322c0 .538.437.979.979.979h11.299M70.307 44.722h23.478" stroke="#000" stroke-linecap="round"/><path d="M48.436 112.275c-3.867 0-7.388-2.819-7.68-6.677a7.943 7.943 0 01-.012-1.014L44.4 72.063h37.614l3.653 32.521c.02.343.016.681-.01 1.014-.291 3.858-3.813 6.677-7.679 6.677H48.436z" fill="#FFF"/><path d="M48.436 112.275c-3.867 0-7.388-2.819-7.68-6.677a7.943 7.943 0 01-.012-1.014L44.4 72.063h37.614l3.653 32.521c.02.343.016.681-.01 1.014-.291 3.858-3.813 6.677-7.679 6.677H48.436z" stroke="#000"/><path d="M42.958 72.906c0 2.76 14.46 2.65 20.25 2.65 5.787 0 20.248.11 20.248-2.65v-2.82c0-2.762-20.248-2.26-20.248-2.26s-20.25-.502-20.25 2.26v2.82z" fill="#FFF"/><path d="M42.958 72.906c0 2.76 14.46 2.65 20.25 2.65 5.787 0 20.248.11 20.248-2.65v-2.82c0-2.762-20.248-2.26-20.248-2.26s-20.25-.502-20.25 2.26v2.82z" stroke="#000"/><path d="M66.046 68.834c0 .595-1.27 1.077-2.839 1.077s-2.84-.482-2.84-1.077l-1.09-4.644c0-.822 1.759-1.49 3.93-1.49 2.17 0 3.929.668 3.929 1.49l-1.09 4.644z" fill="#FFF"/><path d="M66.046 68.834c0 .595-1.27 1.077-2.839 1.077s-2.84-.482-2.84-1.077l-1.09-4.644c0-.822 1.759-1.49 3.93-1.49 2.17 0 3.929.668 3.929 1.49l-1.09 4.644z" stroke="#000"/><path d="M46.44 53.573h-4.212a1.804 1.804 0 01-1.806-1.806v-4.212c0-.997.807-1.806 1.806-1.806h4.212c.997 0 1.806.81 1.806 1.806v4.212c0 .999-.81 1.806-1.806 1.806" fill="#FFF"/><path d="M46.44 53.573h-4.212a1.804 1.804 0 01-1.806-1.806v-4.212c0-.997.807-1.806 1.806-1.806h4.212c.997 0 1.806.81 1.806 1.806v4.212c0 .999-.81 1.806-1.806 1.806z" stroke="#000"/><path d="M34.852 45.164l-3.976 1.392a1.81 1.81 0 01-2.302-1.11l-1.388-3.976a1.805 1.805 0 011.108-2.3l3.976-1.39a1.81 1.81 0 012.302 1.106l1.389 3.98c.33.94-.168 1.97-1.109 2.298" fill="#FFF"/><path d="M34.852 45.164l-3.976 1.392a1.81 1.81 0 01-2.302-1.11l-1.388-3.976a1.805 1.805 0 011.108-2.3l3.976-1.39a1.81 1.81 0 012.302 1.106l1.389 3.98c.33.94-.168 1.97-1.109 2.298z" stroke="#000"/><path d="M36.012 59.342l-2.156 3.62a1.807 1.807 0 01-2.475.627l-3.62-2.158a1.805 1.805 0 01-.627-2.475l2.156-3.619a1.807 1.807 0 012.476-.626l3.618 2.156a1.806 1.806 0 01.628 2.475" fill="#FFF"/><path d="M36.012 59.342l-2.156 3.62a1.807 1.807 0 01-2.475.627l-3.62-2.158a1.805 1.805 0 01-.627-2.475l2.156-3.619a1.807 1.807 0 012.476-.626l3.618 2.156a1.806 1.806 0 01.628 2.475z" stroke="#000"/></g></svg>