<svg width="140" height="140" xmlns="http://www.w3.org/2000/svg"><g stroke="#000" fill="none" fill-rule="evenodd"><path d="M84.81 114.98c-3.855 0-4.897 0-7.712-.48-2.814-.478-5.302-2.387-5.296-5.318l.058-22.107c.008-3.479.172-7.879 1.047-11.386.124-.495 4.594-12.466 1.717-18.189 0 0-2.326-3.407 10.263-3.446h.11l.11-.001c12.59.04 10.262 3.447 10.262 3.447-2.876 5.723 1.593 17.694 1.717 18.189.876 3.507 1.04 7.907 1.047 11.386l.059 22.107c.006 2.93-2.245 4.84-5.297 5.319-3.051.479-4.228.479-8.084.479z"/><path d="M94.127 43.152s.994-.807.994-1.987c0-1.18-1.367-3.168-10.124-3.168 0 0-9.814-.655-11.056 5.045-1.242 5.7-.31 12.097-.31 12.097h20.36a2 2 0 002-2v-2.411s-.063-3.232-1.491-4.472c0 0-.373-1.862-.373-3.104z"/><path d="M94.5 46.256s-.373-1.862-.373-3.104c0 0 .994-.807.994-1.987 0-1.18-1.367-3.168-10.124-3.168 0 0-9.814-.655-11.056 5.045-1.242 5.7-.31 12.097-.31 12.097h20.36a2 2 0 002-2v-2.411s-.063-3.232-1.491-4.472z" fill="#FFF"/><path d="M72.584 77.193H97.41M71.802 109.181h26.39M58.812 41.115l-7.004 19.924a20.492 20.492 0 00-1.127 5.618c-.157 2.72-.367 6.456-.367 7.042 0 4.16-.107 32.874-.107 32.874v6.27c0 .863.467 1.645 1.198 1.998 2.192 1.059 24.276 1.059 26.468 0 .732-.353 1.198-1.135 1.198-1.998v-6.27s-.107-28.714-.107-32.874c0-.586-.21-4.322-.367-7.042a20.507 20.507 0 00-1.127-5.618l-7.004-19.924"/><path d="M58.812 41.115l-7.004 19.924a20.492 20.492 0 00-1.127 5.618c-.157 2.72-.367 6.456-.367 7.042 0 4.16-.107 32.874-.107 32.874v6.27c0 .863.467 1.645 1.198 1.998 2.192 1.059 24.276 1.059 26.468 0 .732-.353 1.198-1.135 1.198-1.998v-6.27s-.107-28.714-.107-32.874c0-.586-.21-4.322-.367-7.042a20.507 20.507 0 00-1.127-5.618l-7.004-19.924" fill="#FFF"/><path d="M50.314 73.7c0 .907 4.194.806 9.988.734a4.283 4.283 0 014.337 4.281v24.896c0 2.39-1.96 4.318-4.349 4.28-5.82-.089-10.083-.41-10.083-1.318M68.042 38.69h-6.93a2.424 2.424 0 00-2.424 2.425h11.778a2.424 2.424 0 00-2.424-2.425zM62.79 38.542h3.698V26.31H62.79zM60.756 26.31h8.438a1.2 1.2 0 001.199-1.222l-.07-3.552a1.2 1.2 0 00-1.199-1.177h-9.511l-21.724-1.102a1.199 1.199 0 00-1.238.968l-.374 1.923a1.2 1.2 0 00.987 1.413l1.316.212a1.199 1.199 0 001.341-.846 1.2 1.2 0 011.266-.855l18.154 1.746.23 1.477a1.2 1.2 0 001.185 1.015z"/></g></svg>