<svg width="88" height="88" xmlns="http://www.w3.org/2000/svg"><g stroke="#000" stroke-width=".75" fill="none" fill-rule="evenodd"><path d="M28.397 39.226s-.236-4.484 2.169-7.889c1.778-2.517 5.396-4.159 7.503-3.943 2.107.215 7.997.644 6.592 8.551-1.405 7.906-6.808 14.566-11.833 12.93-5.025-1.635-4.431-9.649-4.431-9.649z"/><path d="M28.397 39.226s-.236-4.484 2.169-7.889c1.778-2.517 5.396-4.159 7.503-3.943 2.107.215 7.997.644 6.592 8.551-1.405 7.906-6.808 14.566-11.833 12.93-5.025-1.635-4.431-9.649-4.431-9.649z"/><path d="M32.518 43.946s1.407-4.718 2.21-5.493c.806-.776 2.48-3.554 2.683-4.782l.536-3.296M39.982 31.053l-.476 2.872a2.26 2.26 0 01-.197.617c-.459.938-1.89 3.828-2.44 4.494-.66.798-2.316 5.588-2.316 5.588" stroke-linecap="round" stroke-linejoin="round"/><path d="M59.353 48.274s.236 4.483-2.169 7.89c-1.778 2.516-5.396 4.157-7.503 3.942-2.107-.215-7.997-.645-6.592-8.552 1.405-7.906 6.808-14.566 11.833-12.93 5.025 1.636 4.431 9.65 4.431 9.65z"/><path d="M59.353 48.274s.236 4.483-2.169 7.89c-1.778 2.516-5.396 4.157-7.503 3.942-2.107-.215-7.997-.645-6.592-8.552 1.405-7.906 6.808-14.566 11.833-12.93 5.025 1.636 4.431 9.65 4.431 9.65z"/><path d="M55.232 43.553s-1.407 4.719-2.212 5.494c-.804.776-2.479 3.555-2.68 4.782l-.537 3.296M47.768 56.446l.476-2.871c.036-.215.102-.422.197-.617.459-.938 1.89-3.828 2.44-4.494.66-.799 2.316-5.589 2.316-5.589" stroke-linecap="round" stroke-linejoin="round"/></g></svg>