<svg width="140" height="140" xmlns="http://www.w3.org/2000/svg"><g stroke="#020303" fill="none" fill-rule="evenodd" stroke-linecap="round" stroke-linejoin="round"><path d="M48.116 80.773c-2.838-12.258-6.446-29.69-10.553-36.333-.867-1.402-2.232-4.05-2.232-4.05l6.943-1.217s5.103 8.33 9.463 8.33M71.902 29.357a3.137 3.137 0 11-6.274 0 3.137 3.137 0 016.274 0zM100.717 67.972c-.47 5.497-5.753 13.185-7.958 16.913-.25.423-.895.27-.933-.22 0 0 .045-7.105-1.197-19.653-1.2-12.135-.08-1.716-2.188-16.875a.503.503 0 01.44-.538l6.687-.79a.502.502 0 01.526.304c.995 2.365 5.023 16.202 4.623 20.86zm-2.314-26.126l-5.574.725-.386.949-7.192 1.041c1.42 10.499 4.658 35.96 4.617 49.537 0 0 7.825-6.616 13.532-20.692 4.147-10.227-4.997-31.56-4.997-31.56zM47.69 98.56c0 .72 9.387 1.302 20.987 1.302M89.664 98.56c0 .72-9.387 1.302-20.987 1.302"/><path d="M84.571 39.851s8.43 58.387 3.967 62.85c-4.463 4.463 0 7.232 0 8.678 0 1.445-8.883 2.76-19.861 2.76-10.978 0-19.86-1.315-19.86-2.76 0-1.446 4.462-4.215 0-8.678-4.464-4.463 3.966-62.85 3.966-62.85"/><path d="M70.737 34.17l-.307-2.157a3.118 3.118 0 01-3.332-.001l-.307 2.158c-8.003.552-14.204 4.291-14.204 5.68 0 1.503 7.243 1.47 16.178 1.47 8.934 0 16.178.033 16.178-1.47 0-1.389-6.202-5.128-14.206-5.68M70.344 106.442a1.58 1.58 0 11-3.16 0 1.58 1.58 0 013.16 0z"/></g></svg>