<svg width="140" height="140" xmlns="http://www.w3.org/2000/svg"><g stroke="#000" fill="none" fill-rule="evenodd"><path d="M72.048 29.43h9.298c.505 0 .915-.41.915-.915V26.54a.915.915 0 00-.915-.915H51.293a.915.915 0 00-.915.915v1.975c0 .505.41.915.915.915h6.095v6.225c0 .85.688 1.539 1.537 1.539h18.298c.855 0 1.547.691 1.547 1.546v45.82h3.498c.603 0 1.093.489 1.093 1.092v2.743H48.624V85.65c0-.603.49-1.093 1.094-1.093l3.498.002 21.945.001" stroke-linecap="round"/><path stroke-linecap="round" d="M61.668 29.43H75.25v7.7"/><path d="M53.87 84.473v-46.17a1.11 1.11 0 011.11-1.109h3.946M83.648 100.557c-.52.195-1.622.445-2.387.756l.72-8.408a3.827 3.827 0 011.558-.337 3.829 3.829 0 013.829 3.83c0 2.115-1.489 3.322-3.72 4.159zm-32.817 2.025a15.902 15.902 0 002.937 8.423c1.805 2.535 4.782 3.978 7.895 3.978h9.182c2.771 0 5.276-1.168 7.103-3.275.97-1.118 1.927-4.623 3.108-5.536 2.39-1.845 5.849-1.872 8.039-4.002 2.588-2.52 3.281-6.627 1.351-9.953-.965-1.662-2.563-2.825-4.403-3.38-1.51-.457-2.665-.464-4.325-.429v-.005h-28.96a2.826 2.826 0 00-2.817 3.049l.89 11.13z"/></g></svg>