<svg width="140" height="140" xmlns="http://www.w3.org/2000/svg"><g fill="none" fill-rule="evenodd"><path d="M53.064 62.534c-.12.06-1.536 1.363-2.065 1.365-1.5 0-2.448.005-2.684.007" stroke="#000" stroke-linecap="round"/><path d="M56.158 65.485L54.31 67.54c-.246.277-.808.432-1.177.432H48.82a.714.714 0 00-.584.303l-.173.246a.397.397 0 01-.324.167H36.383a7.015 7.015 0 00-2.976.663 4.971 4.971 0 01-2.12.473H25.09a2.544 2.544 0 01-2.544-2.546V64.6a2.544 2.544 0 012.544-2.545h6.197c.733 0 1.457.161 2.12.472.931.437 1.948.664 2.976.664H47.38a.97.97 0 01.968.97l.003 3.987M75.4 40.979v52.08h20.383l5.9-52.08zM63.872 69.754h-3.597a1.472 1.472 0 01-1.472-1.473V65.97h6.541v2.311c0 .815-.659 1.473-1.472 1.473" stroke="#000" stroke-linecap="round"/><path d="M63.872 69.754h-3.597a1.472 1.472 0 01-1.472-1.473V65.97h6.541v2.311c0 .815-.659 1.473-1.472 1.473zM103.544 99.259v4.273a1.914 1.914 0 01-1.914 1.914h-1.351c-.588 0-1.104.389-1.267.954l-.402 1.39h-6.439v-2.344h3.577-40.175c-.608 0-1.1.493-1.1 1.101v1.243H48.03l-.337-1.173c-.125-.435-.259-.746-.195-1.155l3.533-.016h-6.094a1.914 1.914 0 01-1.915-1.914v-4.247c0-3.408 2.763-6.24 6.17-6.24h48.181c3.408 0 6.17 2.807 6.17 6.214" stroke="#000" stroke-linecap="round"/><path d="M103.544 99.259v4.273a1.914 1.914 0 01-1.914 1.914h-1.351c-.588 0-1.104.389-1.267.954l-.402 1.39h-6.439v-2.344h3.577-40.175c-.608 0-1.1.493-1.1 1.101v1.243H48.03l-.337-1.173c-.125-.435-.259-.746-.195-1.155l3.533-.016h-6.094a1.914 1.914 0 01-1.915-1.914v-4.247c0-3.408 2.763-6.24 6.17-6.24h48.181c3.408 0 6.17 2.807 6.17 6.214zM53.247 64.048l-.629-5.223h18.856l-.629 5.223-3.896 1.922h-9.807z" stroke="#000" stroke-linecap="round"/><path stroke="#000" stroke-linecap="round" d="M53.247 64.048l-.629-5.223h18.856l-.629 5.223-3.896 1.922h-9.807zM52.181 84.16c0-.778.632-1.409 1.408-1.409.205 0 .399.047.573.125l.265 3.093c-.28-.115-.686-.207-.877-.278-.822-.309-1.369-.752-1.369-1.53zm-1.652-2.349a3.94 3.94 0 00.476 5.065c1.053 1.026 2.718 1.039 3.869 1.926.568.44 1.028 2.128 1.495 2.666.878 1.015 2.084 1.575 3.418 1.575h4.42c1.462 0 2.876-.65 3.74-1.828a7.678 7.678 0 001.475-4.14c.013 0 .27-3.312.425-5.32a1.393 1.393 0 00-1.392-1.504H54.554v.001c-.856-.016-1.433-.011-2.239.258-.718.24-1.354.679-1.786 1.301z"/><path d="M96.602 58.825h3.051l2.527-22.474c.454-4.167-2.81-7.805-7.002-7.805H49.812c-4.204 0-7.47 3.654-7 7.83l1.93 17.174a5.94 5.94 0 005.902 5.275h45.958" stroke="#000" fill="#FFF" stroke-linecap="round"/></g></svg>